<mxfile host="Electron" modified="2023-06-18T14:03:14.774Z" agent="Mozilla/5.0 (Windows NT 10.0; Win64; x64) AppleWebKit/537.36 (KHTML, like Gecko) draw.io/21.4.0 Chrome/112.0.5615.204 Electron/24.5.1 Safari/537.36" etag="Wp6JLwQH2T5e7SczhVWX" version="21.4.0" type="device">
  <diagram name="Page-1" id="KdtoauOzYgmH46KbbsZd">
    <mxGraphModel dx="1615" dy="955" grid="1" gridSize="10" guides="1" tooltips="1" connect="1" arrows="1" fold="1" page="1" pageScale="1" pageWidth="850" pageHeight="1100" math="0" shadow="0">
      <root>
        <mxCell id="0" />
        <mxCell id="1" parent="0" />
        <mxCell id="RVwHW7XCmQ8znMDT5LRs-1" value="" style="rounded=0;whiteSpace=wrap;html=1;" vertex="1" parent="1">
          <mxGeometry x="40" y="170" width="820" height="190" as="geometry" />
        </mxCell>
        <mxCell id="RVwHW7XCmQ8znMDT5LRs-2" value="" style="rounded=0;whiteSpace=wrap;html=1;" vertex="1" parent="1">
          <mxGeometry x="50" y="180" width="790" height="60" as="geometry" />
        </mxCell>
        <mxCell id="RVwHW7XCmQ8znMDT5LRs-5" value="" style="rounded=0;whiteSpace=wrap;html=1;" vertex="1" parent="1">
          <mxGeometry x="50" y="250" width="790" height="90" as="geometry" />
        </mxCell>
        <mxCell id="RVwHW7XCmQ8znMDT5LRs-6" value="" style="rounded=0;whiteSpace=wrap;html=1;" vertex="1" parent="1">
          <mxGeometry x="170" y="190" width="340" height="40" as="geometry" />
        </mxCell>
        <mxCell id="RVwHW7XCmQ8znMDT5LRs-7" value="" style="rounded=0;whiteSpace=wrap;html=1;" vertex="1" parent="1">
          <mxGeometry x="520" y="190" width="50" height="40" as="geometry" />
        </mxCell>
        <mxCell id="RVwHW7XCmQ8znMDT5LRs-8" value="" style="rounded=0;whiteSpace=wrap;html=1;" vertex="1" parent="1">
          <mxGeometry x="580" y="190" width="50" height="40" as="geometry" />
        </mxCell>
        <mxCell id="RVwHW7XCmQ8znMDT5LRs-9" value="" style="rounded=0;whiteSpace=wrap;html=1;" vertex="1" parent="1">
          <mxGeometry x="640" y="190" width="50" height="40" as="geometry" />
        </mxCell>
        <mxCell id="RVwHW7XCmQ8znMDT5LRs-10" value="" style="rounded=0;whiteSpace=wrap;html=1;" vertex="1" parent="1">
          <mxGeometry x="700" y="190" width="50" height="40" as="geometry" />
        </mxCell>
        <mxCell id="RVwHW7XCmQ8znMDT5LRs-13" value="" style="rounded=0;whiteSpace=wrap;html=1;" vertex="1" parent="1">
          <mxGeometry x="600" y="260" width="60" height="70" as="geometry" />
        </mxCell>
        <mxCell id="RVwHW7XCmQ8znMDT5LRs-14" value="" style="rounded=0;whiteSpace=wrap;html=1;" vertex="1" parent="1">
          <mxGeometry x="680" y="260" width="60" height="70" as="geometry" />
        </mxCell>
        <mxCell id="RVwHW7XCmQ8znMDT5LRs-15" value="" style="rounded=0;whiteSpace=wrap;html=1;" vertex="1" parent="1">
          <mxGeometry x="760" y="260" width="60" height="70" as="geometry" />
        </mxCell>
        <mxCell id="RVwHW7XCmQ8znMDT5LRs-18" value="" style="rounded=0;whiteSpace=wrap;html=1;" vertex="1" parent="1">
          <mxGeometry x="530" y="260" width="60" height="70" as="geometry" />
        </mxCell>
        <mxCell id="RVwHW7XCmQ8znMDT5LRs-22" value="" style="rounded=0;whiteSpace=wrap;html=1;" vertex="1" parent="1">
          <mxGeometry x="380" y="260" width="60" height="70" as="geometry" />
        </mxCell>
        <mxCell id="RVwHW7XCmQ8znMDT5LRs-23" value="" style="rounded=0;whiteSpace=wrap;html=1;" vertex="1" parent="1">
          <mxGeometry x="300" y="260" width="60" height="70" as="geometry" />
        </mxCell>
        <mxCell id="RVwHW7XCmQ8znMDT5LRs-24" value="" style="rounded=0;whiteSpace=wrap;html=1;" vertex="1" parent="1">
          <mxGeometry x="220" y="260" width="60" height="70" as="geometry" />
        </mxCell>
        <mxCell id="RVwHW7XCmQ8znMDT5LRs-25" value="" style="rounded=0;whiteSpace=wrap;html=1;" vertex="1" parent="1">
          <mxGeometry x="140" y="260" width="60" height="70" as="geometry" />
        </mxCell>
        <mxCell id="RVwHW7XCmQ8znMDT5LRs-26" value="" style="rounded=0;whiteSpace=wrap;html=1;" vertex="1" parent="1">
          <mxGeometry x="60" y="260" width="60" height="70" as="geometry" />
        </mxCell>
        <mxCell id="RVwHW7XCmQ8znMDT5LRs-28" value="" style="rounded=0;whiteSpace=wrap;html=1;" vertex="1" parent="1">
          <mxGeometry x="450" y="260" width="60" height="70" as="geometry" />
        </mxCell>
        <mxCell id="RVwHW7XCmQ8znMDT5LRs-29" value="" style="rounded=0;whiteSpace=wrap;html=1;" vertex="1" parent="1">
          <mxGeometry x="70" y="265" width="40" height="35" as="geometry" />
        </mxCell>
        <mxCell id="RVwHW7XCmQ8znMDT5LRs-30" value="" style="rounded=0;whiteSpace=wrap;html=1;" vertex="1" parent="1">
          <mxGeometry x="70" y="310" width="40" height="10" as="geometry" />
        </mxCell>
        <mxCell id="RVwHW7XCmQ8znMDT5LRs-31" value="" style="rounded=0;whiteSpace=wrap;html=1;" vertex="1" parent="1">
          <mxGeometry x="150" y="267.5" width="40" height="35" as="geometry" />
        </mxCell>
        <mxCell id="RVwHW7XCmQ8znMDT5LRs-32" value="" style="rounded=0;whiteSpace=wrap;html=1;" vertex="1" parent="1">
          <mxGeometry x="150" y="312.5" width="40" height="10" as="geometry" />
        </mxCell>
        <mxCell id="RVwHW7XCmQ8znMDT5LRs-33" value="" style="rounded=0;whiteSpace=wrap;html=1;" vertex="1" parent="1">
          <mxGeometry x="230" y="267.5" width="40" height="35" as="geometry" />
        </mxCell>
        <mxCell id="RVwHW7XCmQ8znMDT5LRs-34" value="" style="rounded=0;whiteSpace=wrap;html=1;" vertex="1" parent="1">
          <mxGeometry x="230" y="312.5" width="40" height="10" as="geometry" />
        </mxCell>
        <mxCell id="RVwHW7XCmQ8znMDT5LRs-35" value="" style="rounded=0;whiteSpace=wrap;html=1;" vertex="1" parent="1">
          <mxGeometry x="310" y="267.5" width="40" height="35" as="geometry" />
        </mxCell>
        <mxCell id="RVwHW7XCmQ8znMDT5LRs-36" value="" style="rounded=0;whiteSpace=wrap;html=1;" vertex="1" parent="1">
          <mxGeometry x="310" y="312.5" width="40" height="10" as="geometry" />
        </mxCell>
        <mxCell id="RVwHW7XCmQ8znMDT5LRs-37" value="" style="rounded=0;whiteSpace=wrap;html=1;" vertex="1" parent="1">
          <mxGeometry x="390" y="267.5" width="40" height="35" as="geometry" />
        </mxCell>
        <mxCell id="RVwHW7XCmQ8znMDT5LRs-38" value="" style="rounded=0;whiteSpace=wrap;html=1;" vertex="1" parent="1">
          <mxGeometry x="390" y="312.5" width="40" height="10" as="geometry" />
        </mxCell>
        <mxCell id="RVwHW7XCmQ8znMDT5LRs-39" value="" style="rounded=0;whiteSpace=wrap;html=1;" vertex="1" parent="1">
          <mxGeometry x="460" y="267.5" width="40" height="35" as="geometry" />
        </mxCell>
        <mxCell id="RVwHW7XCmQ8znMDT5LRs-40" value="" style="rounded=0;whiteSpace=wrap;html=1;" vertex="1" parent="1">
          <mxGeometry x="460" y="312.5" width="40" height="10" as="geometry" />
        </mxCell>
        <mxCell id="RVwHW7XCmQ8znMDT5LRs-41" value="" style="rounded=0;whiteSpace=wrap;html=1;" vertex="1" parent="1">
          <mxGeometry x="540" y="267.5" width="40" height="35" as="geometry" />
        </mxCell>
        <mxCell id="RVwHW7XCmQ8znMDT5LRs-42" value="" style="rounded=0;whiteSpace=wrap;html=1;" vertex="1" parent="1">
          <mxGeometry x="540" y="310" width="40" height="12.5" as="geometry" />
        </mxCell>
        <mxCell id="RVwHW7XCmQ8znMDT5LRs-43" value="" style="rounded=0;whiteSpace=wrap;html=1;" vertex="1" parent="1">
          <mxGeometry x="610" y="267.5" width="40" height="35" as="geometry" />
        </mxCell>
        <mxCell id="RVwHW7XCmQ8znMDT5LRs-44" value="" style="rounded=0;whiteSpace=wrap;html=1;" vertex="1" parent="1">
          <mxGeometry x="610" y="310" width="40" height="12.5" as="geometry" />
        </mxCell>
        <mxCell id="RVwHW7XCmQ8znMDT5LRs-45" value="" style="rounded=0;whiteSpace=wrap;html=1;" vertex="1" parent="1">
          <mxGeometry x="690" y="267.5" width="40" height="35" as="geometry" />
        </mxCell>
        <mxCell id="RVwHW7XCmQ8znMDT5LRs-46" value="" style="rounded=0;whiteSpace=wrap;html=1;" vertex="1" parent="1">
          <mxGeometry x="690" y="310" width="40" height="12.5" as="geometry" />
        </mxCell>
        <mxCell id="RVwHW7XCmQ8znMDT5LRs-47" value="" style="rounded=0;whiteSpace=wrap;html=1;" vertex="1" parent="1">
          <mxGeometry x="770" y="267.5" width="40" height="35" as="geometry" />
        </mxCell>
        <mxCell id="RVwHW7XCmQ8znMDT5LRs-48" value="" style="rounded=0;whiteSpace=wrap;html=1;" vertex="1" parent="1">
          <mxGeometry x="770" y="310" width="40" height="12.5" as="geometry" />
        </mxCell>
        <mxCell id="RVwHW7XCmQ8znMDT5LRs-50" value="" style="rounded=0;whiteSpace=wrap;html=1;" vertex="1" parent="1">
          <mxGeometry x="180" y="200" width="80" height="20" as="geometry" />
        </mxCell>
        <mxCell id="RVwHW7XCmQ8znMDT5LRs-51" value="" style="rounded=0;whiteSpace=wrap;html=1;" vertex="1" parent="1">
          <mxGeometry x="270" y="200" width="200" height="20" as="geometry" />
        </mxCell>
        <mxCell id="RVwHW7XCmQ8znMDT5LRs-52" value="" style="rounded=0;whiteSpace=wrap;html=1;" vertex="1" parent="1">
          <mxGeometry x="470" y="200" width="20" height="20" as="geometry" />
        </mxCell>
      </root>
    </mxGraphModel>
  </diagram>
</mxfile>
